if (_typeface_js && _typeface_js.loadFace) _typeface_js.loadFace({"glyphs":{"S":{"x_min":66.5625,"x_max":637.59375,"ha":699,"o":"m 361 937 l 480 923 l 598 874 l 598 767 l 478 824 l 367 841 l 247 804 l 198 700 l 252 593 l 372 534 l 463 497 l 548 444 l 612 367 l 637 256 l 613 141 l 546 57 l 449 5 l 331 -11 l 242 -2 l 155 23 l 66 67 l 66 179 l 150 129 l 240 96 l 329 84 l 424 104 l 494 160 l 521 248 l 489 341 l 410 400 l 320 438 l 204 490 l 117 569 l 82 693 l 105 799 l 164 875 l 253 922 l 361 937 "},"a":{"x_min":42.4375,"x_max":640.484375,"ha":737,"o":"m 640 621 l 640 517 l 640 413 l 640 310 l 640 207 l 640 103 l 640 0 l 542 0 l 542 54 l 456 5 l 356 -11 l 232 12 l 133 81 l 66 183 l 42 310 l 65 437 l 131 540 l 229 608 l 353 632 l 454 614 l 542 565 l 542 621 l 640 621 m 368 78 l 462 98 l 542 154 l 542 258 l 542 362 l 542 466 l 462 522 l 368 543 l 252 511 l 172 428 l 141 310 l 172 192 l 252 109 l 368 78 "},"T":{"x_min":35.6875,"x_max":774.5625,"ha":810,"o":"m 774 829 l 670 829 l 567 829 l 463 829 l 463 710 l 463 592 l 463 473 l 463 355 l 463 237 l 463 118 l 463 0 l 347 0 l 347 118 l 347 237 l 347 355 l 347 473 l 347 592 l 347 710 l 347 829 l 243 829 l 139 829 l 35 829 l 35 926 l 140 926 l 246 926 l 352 926 l 458 926 l 563 926 l 669 926 l 774 926 l 774 829 "},"N":{"x_min":109.96875,"x_max":916.359375,"ha":1026,"o":"m 916 0 l 790 0 l 718 94 l 648 189 l 576 283 l 505 378 l 435 473 l 363 568 l 293 662 l 221 757 l 221 649 l 221 541 l 221 433 l 221 324 l 221 216 l 221 108 l 221 0 l 109 0 l 109 115 l 109 231 l 109 347 l 109 463 l 109 578 l 109 694 l 109 810 l 109 926 l 235 926 l 306 831 l 377 736 l 448 642 l 519 547 l 591 453 l 661 358 l 733 264 l 804 169 l 804 277 l 804 385 l 804 493 l 804 601 l 804 709 l 804 817 l 804 926 l 916 926 l 916 810 l 916 694 l 916 578 l 916 463 l 916 347 l 916 231 l 916 115 l 916 0 "},"K":{"x_min":111.890625,"x_max":803.5,"ha":821,"o":"m 227 0 l 111 0 l 111 115 l 111 231 l 111 347 l 111 463 l 111 578 l 111 694 l 111 810 l 111 926 l 227 926 l 227 810 l 227 694 l 227 578 l 227 463 l 227 347 l 227 231 l 227 115 l 227 0 m 374 494 l 445 411 l 517 329 l 588 246 l 660 164 l 732 81 l 803 0 l 655 0 l 586 81 l 517 163 l 447 245 l 378 327 l 308 409 l 239 491 l 311 578 l 383 665 l 457 752 l 529 839 l 601 926 l 745 926 l 671 840 l 597 753 l 522 667 l 448 580 l 374 494 "},"d":{"x_min":42.4375,"x_max":640.484375,"ha":737,"o":"m 640 926 l 640 810 l 640 694 l 640 578 l 640 463 l 640 347 l 640 231 l 640 115 l 640 0 l 542 0 l 542 55 l 454 5 l 353 -11 l 229 12 l 131 81 l 65 183 l 42 310 l 66 437 l 133 540 l 232 608 l 356 632 l 456 615 l 542 566 l 542 685 l 542 806 l 542 926 l 640 926 m 368 78 l 462 98 l 542 154 l 542 258 l 542 362 l 542 466 l 462 522 l 368 543 l 252 511 l 172 428 l 141 310 l 172 192 l 252 109 l 368 78 "},"Y":{"x_min":30.859375,"x_max":843.046875,"ha":873,"o":"m 494 450 l 494 337 l 494 224 l 494 112 l 494 0 l 379 0 l 379 112 l 379 224 l 379 337 l 379 450 l 309 545 l 240 640 l 169 735 l 100 830 l 30 926 l 175 926 l 241 833 l 306 739 l 373 647 l 438 554 l 504 647 l 570 739 l 636 833 l 702 926 l 843 926 l 773 830 l 704 735 l 633 640 l 564 545 l 494 450 "},"E":{"x_min":111.890625,"x_max":665.5625,"ha":719,"o":"m 665 829 l 555 829 l 446 829 l 336 829 l 227 829 l 227 725 l 227 621 l 227 517 l 354 517 l 481 517 l 607 517 l 607 424 l 481 424 l 354 424 l 227 424 l 227 315 l 227 205 l 227 96 l 336 96 l 446 96 l 555 96 l 665 96 l 665 0 l 554 0 l 443 0 l 333 0 l 222 0 l 111 0 l 111 115 l 111 231 l 111 347 l 111 463 l 111 578 l 111 694 l 111 810 l 111 926 l 222 926 l 333 926 l 443 926 l 554 926 l 665 926 l 665 829 "},"j":{"x_min":-65.59375,"x_max":230.53125,"ha":332,"o":"m 165 875 l 230 810 l 165 744 l 100 810 l 165 875 m 215 578 l 215 467 l 215 355 l 215 245 l 215 134 l 215 22 l 215 -88 l 194 -199 l 138 -284 l 50 -339 l -65 -358 l -65 -267 l 26 -244 l 91 -178 l 116 -81 l 116 28 l 116 138 l 116 248 l 116 358 l 116 468 l 116 578 l 215 578 "},"y":{"x_min":33.765625,"x_max":608.65625,"ha":641,"o":"m 371 0 l 332 -101 l 294 -203 l 255 -304 l 154 -304 l 192 -203 l 231 -101 l 270 0 l 230 103 l 190 207 l 151 310 l 112 413 l 73 517 l 33 621 l 137 621 l 174 522 l 211 424 l 247 326 l 284 227 l 321 129 l 357 227 l 394 326 l 430 424 l 466 522 l 503 621 l 608 621 l 569 517 l 529 413 l 490 310 l 450 207 l 410 103 l 371 0 "},"Z":{"x_min":46.296875,"x_max":785.171875,"ha":831,"o":"m 785 829 l 710 737 l 637 646 l 563 554 l 490 463 l 415 371 l 342 279 l 268 188 l 194 96 l 312 96 l 431 96 l 548 96 l 667 96 l 785 96 l 785 0 l 680 0 l 573 0 l 468 0 l 362 0 l 257 0 l 151 0 l 46 0 l 46 96 l 119 188 l 193 279 l 267 371 l 341 463 l 414 554 l 489 646 l 562 737 l 636 829 l 518 829 l 400 829 l 282 829 l 163 829 l 46 829 l 46 926 l 151 926 l 257 926 l 362 926 l 468 926 l 573 926 l 680 926 l 785 926 l 785 829 "},"u":{"x_min":108.03125,"x_max":658.8125,"ha":774,"o":"m 658 621 l 658 517 l 658 413 l 658 310 l 658 207 l 658 103 l 658 0 l 560 0 l 560 54 l 472 5 l 371 -11 l 262 8 l 179 65 l 126 150 l 108 258 l 108 379 l 108 500 l 108 621 l 206 621 l 206 503 l 206 384 l 206 267 l 230 173 l 295 106 l 388 81 l 479 100 l 560 155 l 560 272 l 560 387 l 560 504 l 560 621 l 658 621 "},"k":{"x_min":87.78125,"x_max":667.484375,"ha":684,"o":"m 326 286 l 256 216 l 187 145 l 187 0 l 87 0 l 87 115 l 87 231 l 87 347 l 87 463 l 87 578 l 87 694 l 87 810 l 87 926 l 187 926 l 187 816 l 187 706 l 187 596 l 187 486 l 187 376 l 187 266 l 273 354 l 272 356 l 275 356 l 361 444 l 447 533 l 533 621 l 654 621 l 568 533 l 481 444 l 394 356 l 463 267 l 530 178 l 599 88 l 667 0 l 544 0 l 471 95 l 399 190 l 326 286 "},"g":{"x_min":42.4375,"x_max":640.484375,"ha":737,"o":"m 640 621 l 640 511 l 640 401 l 640 291 l 640 181 l 640 71 l 640 -38 l 618 -149 l 558 -236 l 469 -292 l 358 -312 l 235 -289 l 137 -227 l 137 -132 l 229 -204 l 348 -230 l 445 -205 l 515 -136 l 542 -38 l 542 77 l 454 27 l 353 9 l 229 32 l 131 96 l 65 194 l 42 321 l 66 446 l 133 544 l 232 609 l 356 632 l 456 615 l 542 566 l 542 621 l 640 621 m 368 91 l 462 110 l 542 165 l 542 269 l 542 373 l 542 476 l 462 530 l 368 549 l 252 518 l 172 437 l 141 321 l 172 204 l 252 122 l 368 91 "},"t":{"x_min":56.90625,"x_max":383.90625,"ha":426,"o":"m 201 448 l 201 356 l 201 266 l 226 168 l 292 103 l 383 80 l 383 -11 l 268 7 l 179 62 l 123 147 l 103 258 l 103 353 l 103 448 l 56 448 l 56 531 l 103 531 l 103 633 l 103 736 l 201 736 l 201 633 l 201 531 l 292 531 l 383 531 l 383 448 l 292 448 l 201 448 "},"e":{"x_min":42.4375,"x_max":693.53125,"ha":737,"o":"m 693 289 l 583 289 l 473 289 l 363 289 l 253 289 l 143 289 l 184 177 l 268 102 l 381 74 l 506 102 l 603 180 l 603 81 l 500 12 l 371 -11 l 265 3 l 174 49 l 104 117 l 58 206 l 42 310 l 58 414 l 105 503 l 174 572 l 264 617 l 368 632 l 471 617 l 561 571 l 631 499 l 677 404 l 693 289 m 143 357 l 254 357 l 365 357 l 477 357 l 588 357 l 544 464 l 466 535 l 368 560 l 262 534 l 183 463 l 143 357 "},"J":{"x_min":1.921875,"x_max":508.328125,"ha":621,"o":"m 508 926 l 508 819 l 508 713 l 508 606 l 508 500 l 508 394 l 508 288 l 487 163 l 427 69 l 336 9 l 218 -11 l 99 8 l 1 66 l 1 196 l 92 127 l 194 101 l 293 123 l 365 190 l 392 299 l 392 403 l 392 508 l 392 612 l 392 716 l 392 821 l 392 926 l 508 926 "},"W":{"x_min":57.875,"x_max":1331.125,"ha":1389,"o":"m 1041 0 l 926 0 l 893 109 l 859 217 l 826 326 l 793 434 l 761 543 l 727 651 l 694 760 l 661 651 l 627 543 l 595 434 l 562 326 l 529 217 l 495 109 l 463 0 l 347 0 l 315 103 l 282 205 l 250 308 l 218 411 l 186 514 l 154 617 l 122 720 l 89 822 l 57 926 l 173 926 l 206 817 l 240 708 l 272 599 l 305 491 l 338 382 l 372 274 l 405 165 l 437 274 l 471 382 l 504 491 l 537 599 l 570 708 l 603 817 l 636 926 l 752 926 l 785 817 l 818 708 l 851 599 l 884 491 l 917 382 l 951 274 l 983 165 l 1016 274 l 1050 382 l 1083 491 l 1116 599 l 1148 708 l 1182 817 l 1215 926 l 1331 926 l 1299 822 l 1266 720 l 1234 617 l 1202 514 l 1170 411 l 1138 308 l 1106 205 l 1073 103 l 1041 0 "},"v":{"x_min":33.765625,"x_max":608.65625,"ha":641,"o":"m 371 0 l 270 0 l 230 103 l 190 207 l 151 310 l 112 413 l 73 517 l 33 621 l 137 621 l 174 522 l 211 424 l 247 327 l 284 228 l 321 130 l 357 228 l 394 327 l 430 424 l 466 522 l 503 621 l 608 621 l 569 517 l 529 413 l 490 310 l 450 207 l 410 103 l 371 0 "},"s":{"x_min":63.65625,"x_max":563.3125,"ha":621,"o":"m 313 631 l 421 619 l 526 575 l 526 481 l 416 531 l 314 547 l 218 525 l 178 460 l 224 389 l 323 359 l 433 330 l 524 275 l 563 175 l 529 73 l 436 10 l 304 -11 l 183 3 l 63 54 l 63 153 l 182 94 l 308 73 l 417 99 l 463 175 l 408 254 l 299 284 l 191 316 l 110 371 l 79 461 l 109 555 l 191 612 l 313 631 "},"B":{"x_min":111.890625,"x_max":734.046875,"ha":778,"o":"m 111 926 l 211 926 l 310 926 l 409 926 l 517 907 l 600 858 l 655 784 l 676 691 l 641 573 l 550 494 l 646 444 l 709 362 l 734 257 l 711 155 l 652 73 l 559 19 l 443 0 l 332 0 l 222 0 l 111 0 l 111 115 l 111 231 l 111 347 l 111 463 l 111 578 l 111 694 l 111 810 l 111 926 m 227 836 l 227 734 l 227 631 l 227 529 l 315 529 l 404 529 l 515 573 l 560 682 l 515 790 l 404 836 l 315 836 l 227 836 m 227 443 l 227 326 l 227 207 l 227 89 l 332 89 l 438 89 l 530 113 l 594 177 l 618 267 l 594 355 l 530 419 l 438 443 l 332 443 l 227 443 "},"H":{"x_min":111.890625,"x_max":893.203125,"ha":1005,"o":"m 893 0 l 772 0 l 772 104 l 772 208 l 772 313 l 772 417 l 664 417 l 556 417 l 448 417 l 340 417 l 232 417 l 232 313 l 232 208 l 232 104 l 232 0 l 111 0 l 111 115 l 111 231 l 111 347 l 111 463 l 111 578 l 111 694 l 111 810 l 111 926 l 232 926 l 232 825 l 232 725 l 232 625 l 232 524 l 340 524 l 448 524 l 556 524 l 664 524 l 772 524 l 772 625 l 772 725 l 772 825 l 772 926 l 893 926 l 893 810 l 893 694 l 893 578 l 893 463 l 893 347 l 893 231 l 893 115 l 893 0 "},"c":{"x_min":50.15625,"x_max":590.328125,"ha":637,"o":"m 368 632 l 491 608 l 590 540 l 590 434 l 497 511 l 379 539 l 264 508 l 181 427 l 149 310 l 181 193 l 264 111 l 379 81 l 497 109 l 590 187 l 590 81 l 491 12 l 368 -11 l 267 3 l 179 49 l 110 117 l 66 206 l 50 310 l 66 414 l 110 503 l 179 572 l 267 617 l 368 632 "},"q":{"x_min":42.4375,"x_max":640.484375,"ha":737,"o":"m 640 621 l 640 505 l 640 389 l 640 273 l 640 158 l 640 42 l 640 -73 l 640 -189 l 640 -304 l 542 -304 l 542 -185 l 542 -64 l 542 54 l 456 5 l 356 -11 l 232 12 l 133 81 l 66 183 l 42 310 l 65 437 l 131 540 l 229 608 l 353 632 l 454 614 l 542 565 l 542 621 l 640 621 m 368 78 l 462 98 l 542 154 l 542 258 l 542 362 l 542 466 l 462 522 l 368 543 l 252 511 l 172 428 l 141 310 l 172 192 l 252 109 l 368 78 "},"b":{"x_min":95.5,"x_max":693.53125,"ha":737,"o":"m 379 632 l 503 608 l 602 540 l 669 437 l 693 310 l 670 183 l 605 81 l 507 12 l 383 -11 l 282 5 l 194 54 l 194 0 l 95 0 l 95 115 l 95 231 l 95 347 l 95 463 l 95 578 l 95 694 l 95 810 l 95 926 l 194 926 l 194 806 l 194 685 l 194 566 l 279 615 l 379 632 m 368 78 l 484 109 l 564 192 l 595 310 l 564 428 l 484 511 l 368 543 l 275 523 l 194 466 l 194 362 l 194 258 l 194 154 l 275 97 l 368 78 "},"D":{"x_min":111.890625,"x_max":952.046875,"ha":988,"o":"m 111 926 l 232 926 l 354 926 l 474 926 l 583 914 l 684 879 l 772 826 l 846 755 l 903 669 l 939 571 l 952 463 l 939 354 l 903 256 l 846 170 l 772 99 l 684 46 l 583 11 l 474 0 l 354 0 l 232 0 l 111 0 l 111 115 l 111 231 l 111 347 l 111 463 l 111 578 l 111 694 l 111 810 l 111 926 m 227 820 l 227 701 l 227 581 l 227 462 l 227 342 l 227 222 l 227 103 l 351 103 l 474 103 l 586 121 l 683 171 l 760 248 l 810 347 l 828 463 l 810 578 l 760 677 l 683 753 l 586 803 l 474 820 l 351 820 l 227 820 "},"I":{"x_min":118.640625,"x_max":234.390625,"ha":352,"o":"m 234 0 l 118 0 l 118 115 l 118 231 l 118 347 l 118 463 l 118 578 l 118 694 l 118 810 l 118 926 l 234 926 l 234 810 l 234 694 l 234 578 l 234 463 l 234 347 l 234 231 l 234 115 l 234 0 "},"G":{"x_min":35.6875,"x_max":878.734375,"ha":963,"o":"m 531 937 l 654 923 l 774 879 l 878 807 l 878 682 l 782 761 l 665 812 l 537 830 l 415 812 l 311 761 l 230 681 l 178 580 l 160 462 l 178 342 l 231 240 l 311 160 l 414 107 l 534 88 l 669 115 l 782 190 l 781 297 l 781 404 l 651 404 l 520 404 l 520 490 l 640 490 l 759 490 l 878 490 l 878 369 l 878 248 l 878 127 l 774 53 l 653 4 l 523 -11 l 410 0 l 307 35 l 217 91 l 141 163 l 84 252 l 48 353 l 35 463 l 48 571 l 82 670 l 138 758 l 213 832 l 305 888 l 411 925 l 531 937 "},"z":{"x_min":50.15625,"x_max":570.0625,"ha":621,"o":"m 570 531 l 491 442 l 412 354 l 334 266 l 255 178 l 177 89 l 275 89 l 373 89 l 471 89 l 570 89 l 570 0 l 465 0 l 361 0 l 258 0 l 154 0 l 50 0 l 50 89 l 129 178 l 208 266 l 286 354 l 365 442 l 444 531 l 346 531 l 246 531 l 148 531 l 50 531 l 50 621 l 154 621 l 258 621 l 361 621 l 465 621 l 570 621 l 570 531 "},"U":{"x_min":91.640625,"x_max":855.578125,"ha":947,"o":"m 855 926 l 855 814 l 855 703 l 855 591 l 855 480 l 855 368 l 836 244 l 781 138 l 698 58 l 594 6 l 473 -11 l 353 6 l 247 57 l 164 138 l 110 244 l 91 368 l 91 480 l 91 591 l 91 703 l 91 814 l 91 926 l 211 926 l 211 814 l 211 703 l 211 591 l 211 480 l 211 368 l 231 258 l 287 171 l 370 114 l 473 94 l 575 114 l 659 171 l 715 258 l 735 368 l 735 480 l 735 591 l 735 703 l 735 814 l 735 926 l 855 926 "},"w":{"x_min":33.765625,"x_max":954.9375,"ha":989,"o":"m 748 0 l 661 0 l 627 98 l 595 196 l 561 294 l 528 392 l 494 490 l 461 392 l 427 294 l 394 196 l 360 98 l 327 0 l 240 0 l 205 103 l 171 207 l 136 310 l 102 413 l 68 517 l 33 621 l 136 621 l 174 502 l 213 383 l 251 265 l 290 146 l 330 265 l 371 383 l 412 502 l 453 621 l 535 621 l 575 502 l 616 383 l 657 265 l 698 146 l 736 265 l 775 383 l 814 502 l 852 621 l 954 621 l 920 517 l 886 413 l 851 310 l 817 207 l 783 103 l 748 0 "},"F":{"x_min":111.890625,"x_max":665.5625,"ha":679,"o":"m 665 829 l 555 829 l 446 829 l 336 829 l 227 829 l 227 723 l 227 616 l 227 510 l 354 510 l 481 510 l 607 510 l 607 417 l 481 417 l 354 417 l 227 417 l 227 313 l 227 208 l 227 104 l 227 0 l 111 0 l 111 115 l 111 231 l 111 347 l 111 463 l 111 578 l 111 694 l 111 810 l 111 926 l 222 926 l 333 926 l 443 926 l 554 926 l 665 926 l 665 829 "},"r":{"x_min":103.203125,"x_max":584.53125,"ha":579,"o":"m 388 632 l 499 609 l 584 546 l 584 436 l 494 509 l 376 536 l 282 517 l 201 463 l 201 348 l 201 231 l 201 115 l 201 0 l 103 0 l 103 103 l 103 207 l 103 310 l 103 413 l 103 517 l 103 621 l 201 621 l 201 563 l 288 613 l 388 632 "},"x":{"x_min":33.765625,"x_max":628.90625,"ha":663,"o":"m 331 247 l 274 164 l 217 82 l 160 0 l 33 0 l 92 79 l 150 158 l 209 238 l 268 317 l 193 418 l 118 519 l 44 621 l 170 621 l 224 543 l 277 464 l 331 386 l 384 464 l 438 543 l 491 621 l 618 621 l 544 519 l 468 418 l 394 317 l 453 238 l 511 158 l 570 79 l 628 0 l 502 0 l 445 82 l 388 164 l 331 247 "},"V":{"x_min":62.703125,"x_max":904.78125,"ha":968,"o":"m 545 0 l 421 0 l 381 103 l 341 205 l 301 308 l 262 411 l 221 514 l 182 617 l 142 720 l 102 822 l 62 926 l 189 926 l 231 815 l 272 704 l 315 593 l 357 482 l 400 371 l 441 260 l 484 149 l 526 260 l 568 371 l 610 482 l 652 593 l 694 704 l 735 815 l 778 926 l 904 926 l 865 822 l 824 720 l 785 617 l 745 514 l 705 411 l 665 308 l 626 205 l 585 103 l 545 0 "},"Q":{"x_min":35.6875,"x_max":1006.0625,"ha":1042,"o":"m 1006 463 l 988 336 l 941 224 l 867 129 l 936 64 l 1006 0 l 882 0 l 801 75 l 716 27 l 623 0 l 520 -11 l 409 0 l 307 35 l 217 91 l 141 163 l 84 252 l 48 353 l 35 463 l 48 572 l 84 673 l 141 762 l 217 834 l 307 890 l 409 925 l 520 937 l 631 925 l 734 890 l 824 834 l 899 762 l 956 673 l 993 572 l 1006 463 m 520 95 l 625 110 l 717 153 l 648 218 l 578 282 l 509 347 l 632 347 l 707 277 l 782 208 l 835 281 l 870 366 l 881 463 l 863 580 l 812 681 l 734 761 l 634 812 l 520 830 l 407 812 l 307 761 l 229 681 l 178 580 l 160 463 l 178 345 l 229 244 l 307 164 l 407 113 l 520 95 "},"h":{"x_min":103.203125,"x_max":654.953125,"ha":737,"o":"m 390 632 l 500 612 l 583 555 l 636 469 l 654 361 l 654 241 l 654 120 l 654 0 l 555 0 l 555 117 l 555 236 l 555 354 l 531 447 l 466 514 l 373 539 l 282 519 l 201 464 l 201 348 l 201 232 l 201 115 l 201 0 l 103 0 l 103 115 l 103 231 l 103 347 l 103 463 l 103 578 l 103 694 l 103 810 l 103 926 l 201 926 l 201 805 l 201 685 l 201 565 l 289 614 l 390 632 "},"M":{"x_min":112.859375,"x_max":1035.96875,"ha":1149,"o":"m 1035 0 l 920 0 l 920 109 l 920 217 l 920 326 l 920 434 l 920 543 l 920 651 l 920 760 l 857 669 l 794 577 l 732 487 l 669 395 l 606 304 l 540 304 l 476 395 l 413 486 l 350 576 l 287 667 l 223 758 l 223 650 l 223 541 l 223 433 l 223 325 l 223 217 l 223 108 l 223 0 l 112 0 l 112 115 l 112 231 l 112 347 l 112 463 l 112 578 l 112 694 l 112 810 l 112 926 l 243 926 l 309 831 l 376 736 l 441 641 l 508 546 l 574 452 l 640 546 l 706 641 l 771 736 l 837 831 l 902 926 l 1035 926 l 1035 810 l 1035 694 l 1035 578 l 1035 463 l 1035 347 l 1035 231 l 1035 115 l 1035 0 "},"C":{"x_min":35.6875,"x_max":858.484375,"ha":905,"o":"m 512 937 l 648 921 l 762 875 l 858 806 l 858 675 l 764 758 l 653 811 l 527 830 l 410 812 l 310 761 l 230 681 l 178 580 l 160 463 l 178 345 l 230 244 l 310 164 l 410 113 l 527 95 l 653 114 l 764 167 l 858 250 l 858 119 l 762 49 l 648 3 l 512 -11 l 403 0 l 302 35 l 214 91 l 139 163 l 83 252 l 48 353 l 35 463 l 48 572 l 83 673 l 139 762 l 214 834 l 302 890 l 403 925 l 512 937 "},"f":{"x_min":56.90625,"x_max":383.90625,"ha":426,"o":"m 383 937 l 383 845 l 292 822 l 226 757 l 201 659 l 201 531 l 292 531 l 383 531 l 383 448 l 292 448 l 201 448 l 201 336 l 201 223 l 201 111 l 201 0 l 103 0 l 103 111 l 103 223 l 103 336 l 103 448 l 56 448 l 56 531 l 103 531 l 103 667 l 123 778 l 179 863 l 268 918 l 383 937 "},"L":{"x_min":130.21875,"x_max":683.890625,"ha":716,"o":"m 245 107 l 354 107 l 464 107 l 573 107 l 683 107 l 683 0 l 572 0 l 462 0 l 352 0 l 241 0 l 130 0 l 130 115 l 130 231 l 130 347 l 130 463 l 130 578 l 130 694 l 130 810 l 130 926 l 245 926 l 245 809 l 245 691 l 245 574 l 245 458 l 245 341 l 245 223 l 245 107 "},"i":{"x_min":100.3125,"x_max":230.53125,"ha":332,"o":"m 165 875 l 230 810 l 165 744 l 100 810 l 165 875 m 215 0 l 116 0 l 116 115 l 116 231 l 116 347 l 116 463 l 116 578 l 215 578 l 215 463 l 215 347 l 215 231 l 215 115 l 215 0 "},"A":{"x_min":62.703125,"x_max":904.78125,"ha":968,"o":"m 287 284 l 250 190 l 215 94 l 178 0 l 62 0 l 102 103 l 142 205 l 182 308 l 221 411 l 262 514 l 301 617 l 341 720 l 381 822 l 421 926 l 545 926 l 585 822 l 626 720 l 665 617 l 705 514 l 745 411 l 785 308 l 824 205 l 865 103 l 904 0 l 789 0 l 753 94 l 716 190 l 681 284 l 582 284 l 484 284 l 385 284 l 287 284 m 484 820 l 443 710 l 402 600 l 361 490 l 321 381 l 429 381 l 538 381 l 646 381 l 605 490 l 565 600 l 524 710 l 484 820 "},"n":{"x_min":103.203125,"x_max":654.953125,"ha":737,"o":"m 390 632 l 500 612 l 583 555 l 636 469 l 654 361 l 654 241 l 654 120 l 654 0 l 555 0 l 555 117 l 555 236 l 555 354 l 531 447 l 466 514 l 373 539 l 282 519 l 201 464 l 201 348 l 201 232 l 201 115 l 201 0 l 103 0 l 103 103 l 103 207 l 103 310 l 103 413 l 103 517 l 103 621 l 201 621 l 201 565 l 289 614 l 390 632 "},"O":{"x_min":35.6875,"x_max":1006.0625,"ha":1042,"o":"m 520 937 l 631 925 l 734 890 l 824 834 l 899 762 l 956 673 l 993 572 l 1006 463 l 993 353 l 956 252 l 899 163 l 824 91 l 734 35 l 631 0 l 520 -11 l 409 0 l 307 35 l 217 91 l 141 163 l 84 252 l 48 353 l 35 463 l 48 572 l 84 673 l 141 762 l 217 834 l 307 890 l 409 925 l 520 937 m 520 830 l 407 812 l 307 761 l 229 681 l 178 580 l 160 463 l 178 345 l 229 244 l 307 164 l 407 113 l 520 95 l 634 113 l 734 164 l 812 244 l 863 345 l 881 463 l 863 580 l 812 681 l 734 761 l 634 812 l 520 830 "}," ":{"x_min":0,"x_max":0,"ha":474},"X":{"x_min":30.859375,"x_max":864.265625,"ha":894,"o":"m 518 484 l 588 387 l 656 290 l 726 193 l 794 96 l 864 0 l 719 0 l 651 99 l 582 198 l 514 299 l 445 398 l 377 299 l 307 198 l 239 99 l 170 0 l 30 0 l 100 96 l 168 192 l 238 289 l 306 385 l 376 482 l 312 571 l 249 659 l 186 748 l 123 837 l 59 926 l 204 926 l 265 836 l 326 746 l 387 657 l 448 568 l 510 657 l 571 746 l 632 836 l 694 926 l 835 926 l 771 837 l 708 749 l 645 660 l 582 572 l 518 484 "},"P":{"x_min":111.890625,"x_max":703.1875,"ha":757,"o":"m 111 926 l 215 926 l 319 926 l 422 926 l 531 904 l 621 844 l 681 758 l 703 651 l 681 544 l 621 456 l 531 396 l 422 375 l 325 375 l 227 375 l 227 249 l 227 125 l 227 0 l 111 0 l 111 115 l 111 231 l 111 347 l 111 463 l 111 578 l 111 694 l 111 810 l 111 926 m 227 829 l 227 709 l 227 591 l 227 471 l 318 471 l 409 471 l 534 524 l 586 651 l 534 777 l 409 829 l 318 829 l 227 829 "},"m":{"x_min":103.203125,"x_max":1117.953125,"ha":1200,"o":"m 853 632 l 963 612 l 1046 555 l 1099 469 l 1117 361 l 1117 241 l 1117 120 l 1117 0 l 1018 0 l 1018 117 l 1018 236 l 1018 354 l 994 447 l 929 514 l 836 539 l 735 516 l 648 447 l 659 361 l 659 241 l 659 120 l 659 0 l 560 0 l 560 117 l 560 236 l 560 354 l 536 447 l 471 514 l 379 539 l 284 518 l 201 460 l 201 345 l 201 229 l 201 114 l 201 0 l 103 0 l 103 103 l 103 207 l 103 310 l 103 413 l 103 517 l 103 621 l 201 621 l 201 561 l 292 614 l 396 632 l 524 603 l 614 523 l 719 603 l 853 632 "},"l":{"x_min":105.140625,"x_max":386.796875,"ha":426,"o":"m 204 926 l 204 816 l 204 706 l 204 596 l 204 486 l 204 376 l 204 266 l 229 168 l 295 103 l 386 80 l 386 -11 l 271 7 l 182 62 l 125 147 l 105 258 l 105 369 l 105 481 l 105 592 l 105 703 l 105 815 l 105 926 l 204 926 "},"p":{"x_min":95.5,"x_max":693.53125,"ha":737,"o":"m 379 632 l 503 608 l 602 540 l 669 437 l 693 310 l 670 183 l 605 81 l 507 12 l 383 -11 l 282 5 l 194 54 l 194 -64 l 194 -185 l 194 -304 l 95 -304 l 95 -189 l 95 -73 l 95 42 l 95 158 l 95 273 l 95 389 l 95 505 l 95 621 l 194 621 l 194 566 l 279 615 l 379 632 m 368 78 l 484 109 l 564 192 l 595 310 l 564 428 l 484 511 l 368 543 l 275 523 l 194 466 l 194 362 l 194 258 l 194 154 l 275 97 l 368 78 "},"R":{"x_min":123.46875,"x_max":772.625,"ha":816,"o":"m 123 926 l 226 926 l 329 926 l 433 926 l 543 904 l 631 844 l 692 758 l 714 651 l 689 539 l 621 452 l 522 402 l 585 301 l 647 200 l 709 100 l 772 0 l 639 0 l 581 93 l 522 187 l 464 281 l 407 375 l 323 375 l 239 375 l 239 249 l 239 125 l 239 0 l 123 0 l 123 115 l 123 231 l 123 347 l 123 463 l 123 578 l 123 694 l 123 810 l 123 926 m 239 829 l 239 709 l 239 591 l 239 471 l 329 471 l 420 471 l 510 496 l 573 560 l 598 651 l 545 777 l 420 829 l 329 829 l 239 829 "},"o":{"x_min":42.4375,"x_max":693.53125,"ha":737,"o":"m 368 632 l 471 617 l 561 572 l 631 503 l 677 414 l 693 310 l 677 206 l 631 117 l 561 49 l 471 3 l 368 -11 l 264 3 l 174 49 l 105 117 l 58 206 l 42 310 l 58 414 l 105 503 l 174 572 l 264 617 l 368 632 m 368 543 l 253 511 l 172 428 l 141 310 l 172 192 l 253 109 l 368 78 l 483 109 l 564 192 l 595 310 l 564 428 l 483 511 l 368 543 "}}}
